<?xml version="1.0" encoding="UTF-8" standalone="no"?><!DOCTYPE svg PUBLIC "-//W3C//DTD SVG 1.1//EN" "http://www.w3.org/Graphics/SVG/1.1/DTD/svg11.dtd"><svg width="100%" height="100%" viewBox="0 0 184 264" version="1.1" xmlns="http://www.w3.org/2000/svg" xmlns:xlink="http://www.w3.org/1999/xlink" xml:space="preserve" xmlns:serif="http://www.serif.com/" style="fill-rule:evenodd;clip-rule:evenodd;stroke-linejoin:round;stroke-miterlimit:1.41421;"><path d="M55,264l-55,0l0,-262.661c3.593,-0.882 7.266,-1.339 11,-1.339c16.354,0 31.524,8.759 44,23.688l0,119.312l18.206,0c26.075,-11.082 44.464,-37.703 44.464,-68.75c0,-6.598 -0.83,-12.996 -2.389,-19.087c1.699,-0.108 3.413,-0.163 5.139,-0.163c16.308,0 31.48,4.906 44.118,13.321c1.721,7.197 2.632,14.707 2.632,22.429c0,33.222 -16.868,62.535 -42.499,79.835l58.999,93.415l-60.5,0l-45.294,-77l-22.876,0l0,77Z" style="fill:#fff;"/></svg>